<svg xmlns="http://www.w3.org/2000/svg" xmlns:xlink="http://www.w3.org/1999/xlink" width="512" height="512" viewBox="0 0 512 512">
  <defs>
    <clipPath id="clip-path">
      <rect width="46" height="76" fill="none"/>
    </clipPath>
    <clipPath id="clip-Web_1920_1">
      <rect width="512" height="512"/>
    </clipPath>
  </defs>
  <g id="Web_1920_1" data-name="background-login" clip-path="url(#clip-Web_1920_1)">
    <path id="Caminho_71" data-name="Caminho 71" d="M112.414,59.949c15.62,1.045,22.154-9.612,29.494-23.311C162-.864,206.746,2.75,221.756,25.843c10.632,16.357,33.559,12.992,52.1,6.591,18.254-6.3,49.354-12.354,74.127-4.824,21.636,6.577,30.514,30.3,50.234,28.842,43.025-3.184,64.716,39.293,56.924,57.818-5.087,12.091-7.61,25.617-3.477,38.059,4.555,13.7,14.958,24.552,23.367,36.331s15.181,26.506,11,40.325c-3.577,11.826-14.247,20.008-20.871,30.465-20.568,32.475-.222,82.242-27.628,109.311-19.618,19.375-51.6,14.9-79.053,18.6-22.894,3.084-44.436,12.7-67.221,16.466-46.147,7.627-92.75-9.175-139.535-9.648-16.479-.165-33.267,1.671-49.228-2.395-21.295-5.423-39.417-21.809-46.806-42.318C45.5,321.159,55.161,288.4,43.643,260.6c-9.383-22.647-32.328-41.076-30.884-65.516.9-15.216,11.294-27.943,18.443-41.44C41.831,133.584,27.762,54.284,112.414,59.949ZM248.592,23.207c-4.1,0-7.434,2.55-7.434,5.695s3.337,5.424,7.434,5.695c13.35.882,13.35-4.516,13.35-7.66C261.941,21.912,252.7,23.207,248.592,23.207ZM384.168,47.491a21.976,21.976,0,0,0,12.761,4.951,5.12,5.12,0,0,0,3.545-.8,2.9,2.9,0,0,0,.263-4.069,6.774,6.774,0,0,0-2.518-1.377,7.931,7.931,0,0,1-3.886-2.9,2.892,2.892,0,0,0-.883-1.1C390.866,40.742,379.471,43.612,384.168,47.491Zm22.74,5.031a5.832,5.832,0,0,0,3.646-.353c.759-.246,1.689-.789,1.485-1.553a1.42,1.42,0,0,0-.783-.793c-1.557-.833-3.575-1.447-5.14-.381S405.732,52.116,406.908,52.522ZM461.2,159.787a10.427,10.427,0,0,0,2.354,4.745,39.834,39.834,0,0,0,6.807,7.77,6.891,6.891,0,0,0,3.932,1.791,6.156,6.156,0,0,0,3.7-1.336,11.772,11.772,0,0,0,4.789-8.127c.5-4.4-1.548-8.688-3.931-12.438-1.476-2.322-3.194-4.638-5.664-5.883-4.14-2.088-6.873-.266-8.029,3.4C464.1,153.08,460.771,156.03,461.2,159.787ZM20.82,262.293c-2.18,1.92-.213,7.539.431,11.248a6.843,6.843,0,0,0,1.153,3.15,7.608,7.608,0,0,0,4.051,2.146c2.652.771,5.869,1.422,7.895-.44,1.5-1.383,1.717-3.638,1.713-5.67a53.242,53.242,0,0,0-.3-5.558,5.956,5.956,0,0,0-.7-2.558,5.681,5.681,0,0,0-2.746-1.979C28.527,261.025,23,260.373,20.82,262.293ZM154.04,403.059c-1.29.262-2.829.816-3.017,2.105-.153,1.066.744,1.977,1.612,2.623,7.114,5.307,16.687,5.646,25.593,5.771a7.6,7.6,0,0,0,3.072-.381,3.957,3.957,0,0,0,1.932-5.164,6.389,6.389,0,0,0-1.373-1.77C174.705,399.279,162.943,401.273,154.04,403.059Zm177.657-3.59c-8.028,5.873.092,11.115,10.23,7.227a141.367,141.367,0,0,1,16.3-5.568c1.809-.453,12.736-2.816,12.737-5.271,0-6.509-12.313-4.973-20.062-3.889A40.3,40.3,0,0,0,331.7,399.469Z" transform="translate(6.306 45.202)" fill="#ecf3ff"/>
    <path id="Caminho_202" data-name="Caminho 202" d="M458.423,121.063c-.107-.672-.229-1.329-.355-1.968" transform="translate(6.306 45.202)" fill="none" stroke="#c8dbfb" stroke-linecap="round" stroke-linejoin="round" stroke-width="1"/>
    <path id="Caminho_203" data-name="Caminho 203" d="M457.114,115.216c-6.9-23.479-28.879-21.214-48.748-21.173l-352.509.728c-33.275.069-30.055,48.107-4,48.054,14.98-.031,20.676,28.1-5.225,28.15-15.539.032-16.036,19.729-5.589,23.675" transform="translate(6.306 45.202)" fill="none" stroke="#c8dbfb" stroke-linecap="round" stroke-linejoin="round" stroke-width="1" stroke-dasharray="3.993 3.993"/>
    <circle id="Elipse_17" data-name="Elipse 17" cx="4.789" cy="4.789" r="4.789" transform="translate(459.942 162.771)" fill="#5193f4"/>
    <path id="Caminho_205" data-name="Caminho 205" d="M97.862,159.442a83.258,83.258,0,0,1-2.931,11.44,194.723,194.723,0,0,1-10.01,23.57c-1.93,4.02-9.76,13.319-13.96,15.09a217.283,217.283,0,0,0-.69-33.331c-1.17-10.2,2.5-17.93-1.5-27.39-.51-1.211-1.04-2.421-1.57-3.631-1.99-4.5-3.96-9.02-4.58-13.869-.8-6.15,1.11-13.16,6.43-16.36,3.83-2.3,8.82-2.18,12.91-.37a23.985,23.985,0,0,1,9.86,8.83C98.792,133.784,100.052,147.164,97.862,159.442Z" transform="translate(6.306 45.202)" fill="#5e82b5"/>
    <path id="Caminho_206" data-name="Caminho 206" d="M79.262,125.469c7.831,11.056,8.51,23.939,9.188,37.471a72.249,72.249,0,0,1-9.259,39.022" transform="translate(6.306 45.202)" fill="none" stroke="#0b43a4" stroke-linecap="round" stroke-linejoin="round" stroke-miterlimit="10" stroke-width="1"/>
    <path id="Caminho_217" data-name="Caminho 217" d="M195.191,161.133c-3.51-4.01-6.75-8.09-10.159-12.02-2.21-2.551-4.49-5.04-6.97-7.4-1.23-1.18-2.5-2.32-3.84-3.43a107.835,107.835,0,0,0-26.211-16.011c-5.7-2.439-11.72-4.449-16.56-8.34s-8.319-10.26-6.71-16.25c1.17-4.319,4.84-7.68,9.05-9.22a24.068,24.068,0,0,1,13.229-.47c12.2,2.63,22.391,11.4,29.32,21.77.12.18.25.37.37.561,5.08,7.75,8.63,16.369,11.72,25.149.99,2.82,1.931,5.66,2.86,8.49C192.691,148.192,196.992,156.942,195.191,161.133Z" transform="translate(6.306 45.202)" fill="#5e82b5"/>
    <path id="Caminho_218" data-name="Caminho 218" d="M139.384,98.176c13.31,2.538,22.73,11.351,32.6,20.632a72.253,72.253,0,0,1,20.384,34.54" transform="translate(6.306 45.202)" fill="none" stroke="#0b43a4" stroke-linecap="round" stroke-linejoin="round" stroke-miterlimit="10" stroke-width="1"/>
    <path id="Caminho_219" data-name="Caminho 219" d="M185.032,149.113a15.737,15.737,0,0,0,.19,4.159c-3.33-.76-5.641-5.93-7.16-11.56a87.031,87.031,0,0,1-2.461-14.12,61.127,61.127,0,0,1,1.11-17.27c5.08,7.75,8.63,16.369,11.72,25.149q-1.59,4.725-2.72,9.561A27.931,27.931,0,0,0,185.032,149.113Z" transform="translate(6.306 45.202)" fill="#5275a0" opacity="0.2"/>
    <path id="Caminho_220" data-name="Caminho 220" d="M208.128,101.063c-1.125,4.991-4.142,9.3-6.8,13.679-1.4,2.305-2.708,4.673-3.93,7.072a107.5,107.5,0,0,0-8.856,24.225,19.64,19.64,0,0,0-.488,8.24c-6.563-1.5-9.176-20.146-9.623-25.688a60.473,60.473,0,0,1,5.023-29.354c1.794-4.014,4.11-7.953,7.678-10.523s8.6-3.473,12.373-1.232a10.088,10.088,0,0,1,4.438,6.139A15.219,15.219,0,0,1,208.128,101.063Z" transform="translate(6.306 45.202)" fill="#52d2bc"/>
    <path id="Caminho_221" data-name="Caminho 221" d="M185.542,148.774c-4.08-10.247-1.6-31.936,4.944-45.567,1.972-4.107,4.779-7.958,8.714-10.253" transform="translate(6.306 45.202)" fill="none" stroke="#00ad9f" stroke-linecap="round" stroke-linejoin="round" stroke-miterlimit="10" stroke-width="1"/>
    <path id="Caminho_222" data-name="Caminho 222" d="M208.128,101.063c-1.125,4.991-4.142,9.3-6.8,13.679-1.4,2.305-2.708,4.673-3.93,7.072a23.811,23.811,0,0,1-3.354-9.834c-.553-5.809,1.666-12.031,6.393-15.452a17.128,17.128,0,0,1,7.508-2.909A15.251,15.251,0,0,1,208.128,101.063Z" transform="translate(6.306 45.202)" fill="#5275a0" opacity="0.2"/>
    <path id="Caminho_223" data-name="Caminho 223" d="M245.976,144.466a21.194,21.194,0,0,1-1.7,5.522c-2.91,6.3-9.017,11.7-18.171,16.1,0,0-.508-9.961-.615-12.627-.446-11.417-12.839-17.735-20.678-26.062-3.992-4.248-7.02-9.61-7.582-15.42s1.666-12.031,6.393-15.452c3.961-2.855,9.145-3.482,14.018-3.11,7.859.626,15.793,3.918,20.678,10.057a8.834,8.834,0,0,1,.572.723c3,4.089,4.535,9.068,5.662,14.028C246.509,126.815,247.39,135.758,245.976,144.466Z" transform="translate(6.306 45.202)" fill="#00ad9f"/>
    <path id="Caminho_224" data-name="Caminho 224" d="M206.993,102.653c8.577,4.437,17.169,9.8,22.165,18.063,6.969,11.528,5.449,26.528.074,38.88" transform="translate(6.306 45.202)" fill="none" stroke="#00ad9f" stroke-linecap="round" stroke-linejoin="round" stroke-miterlimit="10" stroke-width="1"/>
    <path id="Caminho_225" data-name="Caminho 225" d="M389.474,218.117c5.469-9,2.676-20.576,4.577-30.934A34.2,34.2,0,0,1,406.282,166.8c3.979-3.161,9.564-5.418,14.061-3.049.976.514,2.134,1.235,3.069.659a2.455,2.455,0,0,0,.916-1.683c1.14-5.594-1.55-11.7.647-16.973,1.184-2.837,3.631-4.956,6.224-6.608a33.919,33.919,0,0,1,16.768-5.261,9.41,9.41,0,0,1,4.615.7c2.541,1.274,3.7,4.438,3.362,7.261a16.1,16.1,0,0,1-3.625,7.606c-5.741,7.507-14.154,13.984-15.265,23.371a6.09,6.09,0,0,0,.4,3.5c.526,1.024,1.506,1.757,2.059,2.77,1.769,3.25-1.647,6.937-4.984,8.533a28.772,28.772,0,0,1-9.717,2.689c-2.315.217-4.935.271-6.51,1.982-2.9,3.158.435,8.207-.177,12.455-.381,2.652-2.3,4.793-4.233,6.65a76.483,76.483,0,0,1-11.7,9.227c-3.4,2.176-6.99,4.1-10,6.781s-5.444,6.313-5.642,10.344" transform="translate(6.306 45.202)" fill="#52d2bc"/>
    <path id="Caminho_226" data-name="Caminho 226" d="M396.679,209.363c.9-4.361,2.925-8.4,4.934-12.369,3.14-6.21,6.341-12.512,11.083-17.6,3.6-3.867,7.991-6.927,11.65-10.736a39.94,39.94,0,0,0,6.582-9.138,31.622,31.622,0,0,1,3.047-5.3c1.518-1.891,3.593-3.238,5.4-4.856a23.149,23.149,0,0,0,5.723-7.892" transform="translate(6.306 45.202)" fill="none" stroke="#00ad9f" stroke-linecap="round" stroke-linejoin="round" stroke-miterlimit="10" stroke-width="1"/>
    <path id="Caminho_233" data-name="Caminho 233" d="M245.976,144.466a21.194,21.194,0,0,1-1.7,5.522,96.21,96.21,0,0,1-8.89-35.216,19.486,19.486,0,0,1,2.932-11.3,8.995,8.995,0,0,1,.572.722c3,4.09,4.535,9.069,5.662,14.029C246.509,126.815,247.39,135.758,245.976,144.466Z" transform="translate(6.306 45.202)" fill="#5275a0" opacity="0.2"/>
    <path id="Caminho_234" data-name="Caminho 234" d="M287.868,143.962c9.044-3.212,18.436-5.774,26.658-10.727a23.249,23.249,0,0,0,6.646-5.542,11.149,11.149,0,0,0,2.455-8.117c-.4-2.924-2.271-5.725-1.641-8.606.415-1.9,1.841-3.385,2.931-5A15.936,15.936,0,0,0,326.963,92.7c-1.418-4.766-4.987-8.577-7.021-13.114a21.885,21.885,0,0,1-1.692-11.9c-7.586.1-14.511,4.246-21.971,5.629-5.706,1.059-11.644.483-17.3,1.783A27.3,27.3,0,0,0,258.629,97a15.032,15.032,0,0,0-13.255,4.44,19.513,19.513,0,0,0-5.2,14.261c2.331,37.428,23.759,56.954,23.759,56.954S284.42,145.186,287.868,143.962Z" transform="translate(6.306 45.202)" fill="#7ee8d4"/>
    <path id="Caminho_235" data-name="Caminho 235" d="M267.64,143.7c-.938-9.233,2.285-18.359,5.992-26.869,3.612-8.292,7.77-16.421,13.348-23.541s12.668-13.225,21.039-16.656" transform="translate(6.306 45.202)" fill="none" stroke="#00ad9f" stroke-linecap="round" stroke-linejoin="round" stroke-miterlimit="10" stroke-width="1"/>
    <path id="Caminho_236" data-name="Caminho 236" d="M275.688,82.3a74.51,74.51,0,0,0,1.856,26.152" transform="translate(6.306 45.202)" fill="none" stroke="#00ad9f" stroke-linecap="round" stroke-linejoin="round" stroke-miterlimit="10" stroke-width="1"/>
    <path id="Caminho_237" data-name="Caminho 237" d="M279.087,105.5c9.4-6.03,23.863-9.692,35.016-9.053" transform="translate(6.306 45.202)" fill="none" stroke="#00ad9f" stroke-linecap="round" stroke-linejoin="round" stroke-miterlimit="10" stroke-width="1"/>
    <path id="Caminho_238" data-name="Caminho 238" d="M256.1,107.041c11.316,4.771,11.783,21.414,12.086,26.142" transform="translate(6.306 45.202)" fill="none" stroke="#00ad9f" stroke-linecap="round" stroke-linejoin="round" stroke-miterlimit="10" stroke-width="1"/>
    <path id="Caminho_239" data-name="Caminho 239" d="M271.269,122.6c8.66-6.211,21.174-8.078,30.384-5.762" transform="translate(6.306 45.202)" fill="none" stroke="#00ad9f" stroke-linecap="round" stroke-linejoin="round" stroke-miterlimit="10" stroke-width="1"/>
    <path id="Caminho_240" data-name="Caminho 240" d="M294.894,78.023A13.653,13.653,0,0,0,291.9,87.7" transform="translate(6.306 45.202)" fill="none" stroke="#00ad9f" stroke-linecap="round" stroke-linejoin="round" stroke-miterlimit="10" stroke-width="1"/>
    <path id="Caminho_241" data-name="Caminho 241" d="M294.369,85.354c3.992-2.045,9.329-2.514,15.038-1.082" transform="translate(6.306 45.202)" fill="none" stroke="#00ad9f" stroke-linecap="round" stroke-linejoin="round" stroke-miterlimit="10" stroke-width="1"/>
    <path id="Caminho_242" data-name="Caminho 242" d="M71.708,103.456c1.064-.057,8.318-5.431,11.112-7.24a7.641,7.641,0,0,0,2.133-1.8,2.692,2.692,0,0,0,.406-2.646,3.341,3.341,0,0,0-3.395-2.1c-3.614.008-4.869,1.195-6.626,3.013C69.527,98.691,71.708,103.456,71.708,103.456Z" transform="translate(6.306 45.202)" fill="#4a49ca"/>
    <path id="Caminho_243" data-name="Caminho 243" d="M104.232,125.128c3.158,1.419,6.533,2.834,9.969,2.395,1.333-.17,2.787-.775,3.23-2.043a2.991,2.991,0,0,0-1-3.086,7.117,7.117,0,0,0-3.107-1.4c-4.205-1.026-10.107-.458-14.271.724A36.906,36.906,0,0,0,104.232,125.128Z" transform="translate(6.306 45.202)" fill="#4a49ca"/>
    <path id="Caminho_244" data-name="Caminho 244" d="M125.036,78.474c-1.409-.89-2.965-2.08-2.964-3.746s1.744-2.943,3.415-2.953a7,7,0,0,1,4.478,2.006c5.315,4.665,4.652,9.985,4.652,9.985S126.605,79.465,125.036,78.474Z" transform="translate(6.306 45.202)" fill="#4a49ca"/>
    <path id="Caminho_245" data-name="Caminho 245" d="M129.226,64.242a6.829,6.829,0,0,1-3.237-2.307,2.2,2.2,0,0,1-.335-1.868c.363-1.033,1.012-1.962,3.617-1.489,8.25,1.5,10.047,7.146,10.047,7.146S131.417,65.183,129.226,64.242Z" transform="translate(6.306 45.202)" fill="#4a49ca"/>
    <path id="Caminho_246" data-name="Caminho 246" d="M153.4,76.739a13.036,13.036,0,0,0,8.813-4.52,8.065,8.065,0,0,0,1.771-3.278,3.587,3.587,0,0,0-.967-3.45,3.647,3.647,0,0,0-4.271,0,8.594,8.594,0,0,0-2.76,3.593C155.1,70.924,153.4,76.739,153.4,76.739Z" transform="translate(6.306 45.202)" fill="#4a49ca"/>
    <path id="Caminho_247" data-name="Caminho 247" d="M94.308,197.4q-12.02-10.595-24.038-21.189c-4.271-3.766-8.63-7.639-11.335-12.648-5.814-10.768-2.462-24.759,5.39-34.145s19.353-14.929,30.906-18.962,23.58-6.864,34.593-12.2c6.907-3.346,13.853-8.33,15.746-15.767A15.732,15.732,0,0,0,131.262,62.9" transform="translate(6.306 45.202)" fill="none" stroke="#0b43a4" stroke-linecap="round" stroke-linejoin="round" stroke-miterlimit="10" stroke-width="1"/>
    <path id="Caminho_248" data-name="Caminho 248" d="M158.995,69.058c-2.188,6.724-10.717,10.813-14.608,16.637" transform="translate(6.306 45.202)" fill="none" stroke="#0b43a4" stroke-linecap="round" stroke-linejoin="round" stroke-miterlimit="10" stroke-width="1"/>
    <path id="Caminho_249" data-name="Caminho 249" d="M128.375,76.79c1.679,1.772,3.69,3.238,5.156,5.191,3.1,4.128,3.354,10.836-1.226,15" transform="translate(6.306 45.202)" fill="none" stroke="#0b43a4" stroke-linecap="round" stroke-linejoin="round" stroke-miterlimit="10" stroke-width="1"/>
    <path id="Caminho_250" data-name="Caminho 250" d="M85.228,114.427a45.737,45.737,0,0,0,25.28,9.424" transform="translate(6.306 45.202)" fill="none" stroke="#0b43a4" stroke-linecap="round" stroke-linejoin="round" stroke-miterlimit="10" stroke-width="1"/>
    <path id="Caminho_251" data-name="Caminho 251" d="M69.044,124.35a24.95,24.95,0,0,1,8.388-27.192" transform="translate(6.306 45.202)" fill="none" stroke="#0b43a4" stroke-linecap="round" stroke-linejoin="round" stroke-miterlimit="10" stroke-width="1"/>
    <path id="Caminho_252" data-name="Caminho 252" d="M327.458,83.795a3.535,3.535,0,0,1,.514-3.535,2.607,2.607,0,0,1,2.771-.621c7.029,3.091,6.27,14.059,6.27,14.059S330.345,92.732,327.458,83.795Z" transform="translate(6.306 45.202)" fill="#4a49ca"/>
    <path id="Caminho_253" data-name="Caminho 253" d="M327.287,104.336c-4.547,8.218,11.615,7.591,17.442,2.751C344.729,107.088,331.2,97.262,327.287,104.336Z" transform="translate(6.306 45.202)" fill="#4a49ca"/>
    <path id="Caminho_254" data-name="Caminho 254" d="M347.722,84.417c-1.1-1.5-1.484-3.744-.291-5.172a3.992,3.992,0,0,1,3.8-1.129,8.909,8.909,0,0,1,4.271,2.6c5.318,6.617,2.818,13.092,2.818,13.092S349.519,86.881,347.722,84.417Z" transform="translate(6.306 45.202)" fill="#4a49ca"/>
    <path id="Caminho_255" data-name="Caminho 255" d="M411.906,104.767a3.621,3.621,0,0,1,.694-3.738,3.173,3.173,0,0,1,2.362-.706,7.141,7.141,0,0,1,2.418.722,7.726,7.726,0,0,1,3.724,3.7c2,4.117.642,9.214.642,9.214S412.885,107.956,411.906,104.767Z" transform="translate(6.306 45.202)" fill="#4a49ca"/>
    <path id="Caminho_256" data-name="Caminho 256" d="M391.716,119.848A10.377,10.377,0,0,0,381,118.123a5.48,5.48,0,0,0-2.293,1.72c-1.276,1.766-.829,4.347.5,6.077a13.4,13.4,0,0,0,5.317,3.683c3.6,1.632,9.179,1.959,13.007,2.937C397.527,132.538,397.512,124.937,391.716,119.848Z" transform="translate(6.306 45.202)" fill="#4a49ca"/>
    <path id="Caminho_257" data-name="Caminho 257" d="M332.495,85.558c2.378,7.783,9.107,13.656,16.6,16.833s15.746,4.016,23.866,4.541,16.339.787,24.192,2.919c7.654,2.078,15.274,6.4,18.562,13.624,4,8.786.457,19.293-5.153,27.146s-13.174,14.183-18.6,22.164c-2.494,3.665-4.576,7.955-4.072,12.358.674,5.871,5.618,10.194,10.217,13.908" transform="translate(6.306 45.202)" fill="none" stroke="#0b43a4" stroke-linecap="round" stroke-linejoin="round" stroke-miterlimit="10" stroke-width="1"/>
    <path id="Caminho_258" data-name="Caminho 258" d="M351.216,82.7a46.564,46.564,0,0,1,10.729,23.222" transform="translate(6.306 45.202)" fill="none" stroke="#0b43a4" stroke-linecap="round" stroke-linejoin="round" stroke-miterlimit="10" stroke-width="1"/>
    <path id="Caminho_259" data-name="Caminho 259" d="M333.118,105.7a37.224,37.224,0,0,0,9.379,1.646,14.333,14.333,0,0,0,9.161-3.968" transform="translate(6.306 45.202)" fill="none" stroke="#0b43a4" stroke-linecap="round" stroke-linejoin="round" stroke-miterlimit="10" stroke-width="1"/>
    <path id="Caminho_260" data-name="Caminho 260" d="M417.172,105.25a15.885,15.885,0,0,1,4.785,10.712c.15,4-2.072,8.858-4.738,11.851" transform="translate(6.306 45.202)" fill="none" stroke="#0b43a4" stroke-linecap="round" stroke-linejoin="round" stroke-miterlimit="10" stroke-width="1"/>
    <path id="Caminho_261" data-name="Caminho 261" d="M387.007,123.427a160.594,160.594,0,0,0,17.173,14.09c2.924,2.056,8.726,4.689,11.3,4.011" transform="translate(6.306 45.202)" fill="none" stroke="#0b43a4" stroke-linecap="round" stroke-linejoin="round" stroke-miterlimit="10" stroke-width="1"/>
    <path id="Caminho_268" data-name="Caminho 268" d="M403.969,350.216l-300.888.621a7.269,7.269,0,0,1-7.284-7.255l-.412-199.333a7.269,7.269,0,0,1,7.254-7.284l300.889-.621a7.269,7.269,0,0,1,7.283,7.254l.409,199.333A7.267,7.267,0,0,1,403.969,350.216Z" transform="translate(6.306 45.202)" fill="#5275a0" opacity="0.2"/>
    <path id="Caminho_269" data-name="Caminho 269" d="M398.076,346.406l-300.889.621a7.268,7.268,0,0,1-7.283-7.254L89.492,140.44a7.268,7.268,0,0,1,7.254-7.283l300.888-.621a7.266,7.266,0,0,1,7.284,7.253l.411,199.332A7.267,7.267,0,0,1,398.076,346.406Z" transform="translate(6.306 45.202)" fill="#fff"/>
    <path id="Caminho_270" data-name="Caminho 270" d="M397.146,132.539l-299.6.618a7.914,7.914,0,0,0-7.9,7.929l.015,6.88,315.426-.651-.015-6.88A7.91,7.91,0,0,0,397.146,132.539Z" transform="translate(6.306 45.202)" fill="#3a5796"/>
    <path id="Caminho_272" data-name="Caminho 272" d="M397.724,134.538a5.278,5.278,0,0,1,5.27,5.258l.411,199.333a5.268,5.268,0,0,1-5.258,5.28l-300.9.621a5.278,5.278,0,0,1-5.27-5.258l-.41-199.333a5.275,5.275,0,0,1,5.257-5.279l300.884-.621h.015m0-2h-.016l-300.888.621a7.27,7.27,0,0,0-7.254,7.283l.412,199.333a7.269,7.269,0,0,0,7.269,7.254h.015l300.889-.621a7.268,7.268,0,0,0,7.254-7.282l-.411-199.333a7.272,7.272,0,0,0-7.27-7.255Z" transform="translate(6.306 45.202)" fill="#3a5796"/>
    <circle id="Elipse_20" data-name="Elipse 20" cx="2.549" cy="2.549" r="2.549" transform="translate(108.157 183.063)" fill="#c8dbfb"/>
    <circle id="Elipse_21" data-name="Elipse 21" cx="2.549" cy="2.549" r="2.549" transform="translate(118.948 183.04)" fill="#c8dbfb"/>
    <circle id="Elipse_22" data-name="Elipse 22" cx="2.549" cy="2.549" r="2.549" transform="translate(129.741 183.018)" fill="#c8dbfb"/>
    <path id="Caminho_289" data-name="Caminho 289" d="M293.558,119.227c-20.229-.773-48.078,14.188-38.2,50.766-.216,3.093,1.638,5.3,3.606,4.694s.232-6.465.232-6.465c3.367-27.2,9.668-31.9,20.361-31.8l25.092-.052c6.2.914,17.473,5.25,19.164,27.021l6.246,1.154C330.55,148.816,326.743,120.5,293.558,119.227Z" transform="translate(6.306 45.202)" fill="#5275a0" opacity="0.2"/>
    <path id="Caminho_290" data-name="Caminho 290" d="M293.558,116.041c-20.229-.774-48.078,14.187-38.2,50.765l3.841-1.77c3.368-27.2,9.668-31.9,20.363-31.8l25.09-.052c6.2.914,17.773,6.417,19.465,28.188l5.945-.014C330.55,145.631,326.743,117.31,293.558,116.041Z" transform="translate(6.306 45.202)" fill="#ef832b"/>
    <path id="Caminho_291" data-name="Caminho 291" d="M289.42,116.637l-3,6.6s.358,3.719,4.009,3.642,4.137-1.763,4.137-1.763l.478-7.582Z" transform="translate(6.306 45.202)" fill="#ffb9a3"/>
    <path id="Caminho_292" data-name="Caminho 292" d="M304.864,111.129c-3.426,6.055-4.941,7.938-9.421,8.849-5.8,1.18-12.3-2.731-9.28-12.373,2.465-7.86,6.2-6.649,9.852-6.353S308.563,104.588,304.864,111.129Z" transform="translate(6.306 45.202)" fill="#ffb9a3"/>
    <path id="Caminho_293" data-name="Caminho 293" d="M291.25,106.352a2.456,2.456,0,0,0-2.787.673,3.058,3.058,0,0,0-.769,2.919,2.656,2.656,0,0,0-2.5,2.791c-.958-2.234-.438-4.559-.63-6.846s.062-4.772,1.544-6.523a7.422,7.422,0,0,1,2.222-1.713,11.5,11.5,0,0,1,10.318-.146,6.256,6.256,0,0,0,4.643.813c4.418-1.067,7,1.92,4.35,4.72a3.524,3.524,0,0,1,2.174,1.508.682.682,0,0,1,.02.663.773.773,0,0,1-.4.251,4.826,4.826,0,0,1-2.324.185c.3.253,1.938.353,2.432,1.307,1.316,2.539-3.9,1.257-4.7,1,.908.171,3.293,2.072,2.529,3.378-.15.258-3.369,2.133-6.752-1.8a6.168,6.168,0,0,0-2.934-2.068,4.627,4.627,0,0,0-2.758.427c-.646.243-2.3,1.247-2.77.649C291.636,107.888,292.306,106.876,291.25,106.352Z" transform="translate(6.306 45.202)" fill="#0c2340"/>
    <path id="Caminho_296" data-name="Caminho 296" d="M298.4,98.034c3.43.187,7.648-2.236,10.336.874.248.288.746-.1.527-.407-2.57-3.694-7.33-.944-10.863-1.038-.37-.009-.366.551,0,.571Z" transform="translate(6.306 45.202)" fill="#0c2340"/>
    <path id="Caminho_297" data-name="Caminho 297" d="M299.772,96.141c-2.245.391-4.373-.721-6.6-.381a10.516,10.516,0,0,0-5.412,2.585c-.373.324.113.951.523.681,2.046-1.346,3.938-2.434,6.48-2.294,1.84.1,3.369.68,5.2.134a.375.375,0,0,0-.194-.725Z" transform="translate(6.306 45.202)" fill="#0c2340"/>
    <path id="Caminho_298" data-name="Caminho 298" d="M286.433,99.341a5.391,5.391,0,0,0-2.8,4.373c-.086,1.446-.224,4.653,1.248,5.473a.349.349,0,0,0,.422-.546c-.9-.912-.892-3.182-.943-4.319a5.313,5.313,0,0,1,2.308-4.576c.234-.178.025-.568-.238-.4Z" transform="translate(6.306 45.202)" fill="#0c2340"/>
    <path id="Caminho_299" data-name="Caminho 299" d="M311.8,104.972c-.848-1.471-3.02-2.772-4.688-1.839a.3.3,0,0,0,.148.553,8.54,8.54,0,0,1,2,.1,3.642,3.642,0,0,1,2.088,1.446c.192.272.624.033.452-.264Z" transform="translate(6.306 45.202)" fill="#0c2340"/>
    <path id="Caminho_331" data-name="Caminho 331" d="M207.138,57.426,204.792,51.7l22.63-8.593Z" transform="translate(6.306 45.202)" fill="#0b43a4"/>
    <path id="Caminho_332" data-name="Caminho 332" d="M208.279,53.9,227.422,43.1,214.1,56.64Z" transform="translate(6.306 45.202)" fill="#5193f4"/>
    <path id="Caminho_333" data-name="Caminho 333" d="M199.614,49.364l27.808-6.26L204.792,51.7Z" transform="translate(6.306 45.202)" fill="#5193f4"/>
    <path id="Caminho_334" data-name="Caminho 334" d="M208.279,53.9l-1.141,3.531,3.455-2.44Z" transform="translate(6.306 45.202)" fill="#0056ec"/>
    <path id="Caminho_335" data-name="Caminho 335" d="M204.48,56.66c-5.907-1-13.928,4.975-10.479,11.2,1.174,2.119,7.232,1.2,6.781-1.143-.215-1.121-1.588-1.6-2.723-1.468-6.6.757-6.866,6.292-6.574,7.7,1.512,7.278,12.668,4.816,16.419,3.79" transform="translate(6.306 45.202)" fill="none" stroke="#c8dbfb" stroke-linecap="round" stroke-linejoin="round" stroke-miterlimit="10" stroke-width="1" stroke-dasharray="4"/>
    <ellipse id="Elipse_14" data-name="Elipse 14" cx="38.647" cy="3.611" rx="38.647" ry="3.611" transform="translate(145.875 416.875)" fill="#c8dbfb"/>
    <ellipse id="Elipse_15" data-name="Elipse 15" cx="38.646" cy="3.611" rx="38.646" ry="3.611" transform="translate(344.427 416.875)" fill="#c8dbfb"/>
    <circle id="Elipse_16" data-name="Elipse 16" cx="4.789" cy="4.789" r="4.789" transform="translate(45.843 235.642)" fill="#5193f4"/>
    <path id="Caminho_207" data-name="Caminho 207" d="M78.935,329.449c-5.488-4.852-11.041-9.773-15.1-15.873-3.532-5.313-5.812-11.344-8.893-16.93-1.994-3.613-4.348-7.1-5.5-11.059s-.878-8.656,1.938-11.674c2.937-3.148,7.989-3.631,11.977-2.01s7.037,4.977,9.365,8.6a40.979,40.979,0,0,1,6.019,15.928c.78,5.123.581,10.356,1.376,15.477a51.758,51.758,0,0,0,4.366,13.722c1.833,3.966,6.477,11.03,7.663,15.1C88.863,342.365,81.273,331.516,78.935,329.449Z" transform="translate(6.306 45.202)" fill="#00ad9f"/>
    <path id="Caminho_208" data-name="Caminho 208" d="M59.746,279.152c5.218,2.285,7.293,8.508,8.382,14.1,1.239,6.363.964,13.256,3.882,19.044,5.5,10.9,12.65,23.319,17.966,27.028" transform="translate(6.306 45.202)" fill="none" stroke="#00ad9f" stroke-linecap="round" stroke-linejoin="round" stroke-miterlimit="10" stroke-width="1"/>
    <path id="Caminho_209" data-name="Caminho 209" d="M51.925,314.527c-4.554-1.8-10.636-2.537-13.556,1.4-2.445,3.291-1.179,7.955.51,11.69,1.426,3.152,3.237,6.359,6.244,8.074a17.81,17.81,0,0,0,6.808,1.8,163.57,163.57,0,0,0,19.738,1.143A41.364,41.364,0,0,1,94.895,346.5C86.779,331.412,67.252,320.582,51.925,314.527Z" transform="translate(6.306 45.202)" fill="#3a5796"/>
    <path id="Caminho_210" data-name="Caminho 210" d="M43.935,324.334c5.8.248,11.647.653,17.211,2.3,5.69,1.682,27.578,11.727,31,16" transform="translate(6.306 45.202)" fill="none" stroke="#0b43a4" stroke-linecap="round" stroke-linejoin="round" stroke-miterlimit="10" stroke-width="1"/>
    <path id="Caminho_211" data-name="Caminho 211" d="M101.6,283.574a38.585,38.585,0,0,0-26.984-17.227c-8.06-1.082-16.354.426-24.309-1.252A30.979,30.979,0,0,1,27,225.886c1.869-6.223,6.138-12.117,12.319-14.113a19.526,19.526,0,0,1,10.492-.1,29.231,29.231,0,0,1,8.846,3.822c6.223,3.939,11.247,10,15.027,16.439,3.43,5.852,11.9,14.963,17.65,20.889,3.377,3.463,5.83,5.83,5.83,5.83C101.114,263.555,99.265,277.723,101.6,283.574Z" transform="translate(6.306 45.202)" fill="#52d2bc"/>
    <path id="Caminho_212" data-name="Caminho 212" d="M37.521,229.764c19.367,8.744,40.494,20.2,54.229,36.418" transform="translate(6.306 45.202)" fill="none" stroke="#00ad9f" stroke-linecap="round" stroke-linejoin="round" stroke-miterlimit="10" stroke-width="1"/>
    <path id="Caminho_213" data-name="Caminho 213" d="M93.605,264s-28.863-23.4-34.949-48.512c6.223,3.938,11.247,10,15.027,16.438,3.43,5.854,11.9,14.963,17.65,20.889C92.013,255.963,92.767,259.646,93.605,264Z" transform="translate(6.306 45.202)" fill="#5275a0" opacity="0.2"/>
    <path id="Caminho_214" data-name="Caminho 214" d="M94.931,170.883a194.724,194.724,0,0,1-10.01,23.57c-1.93,4.02-9.76,13.319-13.96,15.09a217.283,217.283,0,0,0-.69-33.331c-1.17-10.2,2.5-17.93-1.5-27.39-.51-1.211-1.04-2.421-1.57-3.631.37.12.73.25,1.08.4,6.58,2.82,9.62,9.78,10.18,16.54.47,5.58-.54,11.17-1.29,16.72a22.087,22.087,0,0,0-.08,7.69.235.235,0,0,1,.02.08,2.88,2.88,0,0,0,5.62-.21l1.75-9.29c.52-2.78,1.09-5.69,3.37-7.63a4.809,4.809,0,0,1,3.24-1.21A4.443,4.443,0,0,1,94.931,170.883Z" transform="translate(6.306 45.202)" fill="#5275a0" opacity="0.2"/>
    <path id="Caminho_215" data-name="Caminho 215" d="M93.61,258.135c-4.56-23.809-6.957-27.477-4.951-33.445,2.555-7.6,1.119-15.253,3.53-22.9s4.052-15.884,2.106-23.667c-.614-2.461-1.86-5.146-4.817-5.247a4.814,4.814,0,0,0-3.245,1.207c-2.279,1.941-2.854,4.851-3.375,7.63L81.117,191a2.882,2.882,0,0,1-5.623.2c-.006-.025-.012-.051-.017-.075a22,22,0,0,1,.073-7.688c.749-5.555,1.758-11.143,1.3-16.729-.559-6.759-3.6-13.72-10.185-16.533a11.632,11.632,0,0,0-7.427-.593c-6.872,1.764-8.65,8.479-7.643,14.214.709,4.035,2.6,7.746,4.315,11.468,4.18,9.092,1.114,17.431,1.692,27.42C59.2,230.256,93.61,258.135,93.61,258.135Z" transform="translate(6.306 45.202)" fill="#7ee8d4"/>
    <path id="Caminho_216" data-name="Caminho 216" d="M62.95,156.791c3.391,16.939,6.819,34,13.4,49.977,1.93,4.686,2.874,10.85,14.042,23.594" transform="translate(6.306 45.202)" fill="none" stroke="#00ad9f" stroke-linecap="round" stroke-linejoin="round" stroke-miterlimit="10" stroke-width="1"/>
    <path id="Caminho_227" data-name="Caminho 227" d="M467.981,224.363c-1.23,4.74-3.063,9.43-6.2,13.189a28.142,28.142,0,0,1-7.82,6.311,45.036,45.036,0,0,1-4.729,2.313,56.867,56.867,0,0,1-19.771,4.379c-9.88.371-20.04-1.813-29.52,1.01a29.112,29.112,0,0,0-11.65,6.75,28.339,28.339,0,0,0-5.229,6.611l1.291-8.2c2.39-8.82,4.828-17.8,9.71-25.529a67.041,67.041,0,0,1,11.59-13.381,96.733,96.733,0,0,1,23.17-16.2c6.88-3.341,14.52-5.69,22.12-4.761s15.05,5.721,17.42,12.99C469.881,214.513,469.221,219.613,467.981,224.363Z" transform="translate(6.306 45.202)" fill="#5e82b5"/>
    <path id="Caminho_228" data-name="Caminho 228" d="M390.812,250.48a59.971,59.971,0,0,1,30.434-23.1c7.664-2.561,15.768-3.531,23.53-5.771s15.507-6.044,20.058-12.719" transform="translate(6.306 45.202)" fill="none" stroke="#0b43a4" stroke-linecap="round" stroke-linejoin="round" stroke-miterlimit="10" stroke-width="1"/>
    <path id="Caminho_229" data-name="Caminho 229" d="M395.6,329.252c.435-11.027,6.136-21.211,13.06-29.809,5.772-7.168,12.743-13.729,21.35-16.994,2.7-1.023,5.656-1.709,8.457-1.021s5.339,3.084,5.392,5.969c.043,2.432-1.592,4.555-3.312,6.277-5.658,5.666-12.972,9.3-19.825,13.444-11.778,7.119-22.977,16.623-27.65,29.569" transform="translate(6.306 45.202)" fill="#52d2bc"/>
    <path id="Caminho_230" data-name="Caminho 230" d="M399.954,319.6c7.2-16.059,25.836-30.418,38.128-32.211" transform="translate(6.306 45.202)" fill="none" stroke="#00ad9f" stroke-linecap="round" stroke-linejoin="round" stroke-miterlimit="10" stroke-width="1"/>
    <path id="Caminho_231" data-name="Caminho 231" d="M391.1,338.021c-.1-1.85,5.931-6.682,7.287-7.914A69.836,69.836,0,0,1,424.3,315.3c3.824-1.2,7.888-2.074,11.712-1.15s7.337,4.057,7.713,8.184c.362,4-2.321,7.919-5.747,9.854s-7.435,2.229-11.253,2.008c-5.9-.344-11.7-1.812-17.625-1.766S394.856,333.07,391.1,338.021Z" transform="translate(6.306 45.202)" fill="#00ad9f"/>
    <path id="Caminho_232" data-name="Caminho 232" d="M397.233,332.408c12.11-6.561,30.425-10.832,43.72-9.223" transform="translate(6.306 45.202)" fill="none" stroke="#00ad9f" stroke-linecap="round" stroke-linejoin="round" stroke-miterlimit="10" stroke-width="1"/>
    <path id="Caminho_262" data-name="Caminho 262" d="M453.961,243.863a45.036,45.036,0,0,1-4.729,2.313,56.867,56.867,0,0,1-19.771,4.379c-9.88.371-20.04-1.813-29.52,1.01a29.112,29.112,0,0,0-11.65,6.75c-.33.16-.659.34-.989.531-.791-6.689,15.892-15.41,20.959-17.684a60.427,60.427,0,0,1,29.353-5.119c4.38.352,8.87,1.211,12.479,3.7A13.364,13.364,0,0,1,453.961,243.863Z" transform="translate(6.306 45.202)" fill="#5275a0" opacity="0.2"/>
    <path id="Caminho_263" data-name="Caminho 263" d="M437.61,240.041c4.378.35,8.867,1.209,12.481,3.7s6.159,6.938,5.315,11.25c-.981,5.02-6.172,8.283-11.249,8.9s-10.15-.777-15.16-1.813a108.127,108.127,0,0,0-33.779-1.545,19.522,19.522,0,0,0-7.924,2.309c-.788-6.7,15.9-15.41,20.969-17.686A60.531,60.531,0,0,1,437.61,240.041Z" transform="translate(6.306 45.202)" fill="#52d2bc"/>
    <path id="Caminho_264" data-name="Caminho 264" d="M391.64,258.625c8.283-7.281,29.549-12.225,44.587-10.631,4.528.479,9.1,1.832,12.582,4.77" transform="translate(6.306 45.202)" fill="none" stroke="#00ad9f" stroke-linecap="round" stroke-linejoin="round" stroke-miterlimit="10" stroke-width="1"/>
    <path id="Caminho_265" data-name="Caminho 265" d="M376.165,176.827l80.886-.167a17.188,17.188,0,0,1,17.224,17.15h0a17.187,17.187,0,0,1-17.151,17.223l-55.328.113" transform="translate(6.306 45.202)" fill="none" stroke="#0b43a4" stroke-linecap="round" stroke-linejoin="round" stroke-miterlimit="10" stroke-width="1" stroke-dasharray="4"/>
    <path id="Caminho_266" data-name="Caminho 266" d="M131.421,236.217l-56.567.115a9.7,9.7,0,0,0-9.681,9.721h0a9.7,9.7,0,0,0,9.721,9.682l16.494-.033" transform="translate(6.306 45.202)" fill="none" stroke="#0b43a4" stroke-linecap="round" stroke-linejoin="round" stroke-miterlimit="10" stroke-width="1" stroke-dasharray="4"/>
    <path id="Caminho_267" data-name="Caminho 267" d="M41.135,280.023c-19.378.039-19.783,28.945,4.875,28.9s348.126-.72,363.382-.75,16.861-23.831-1.994-23.792c-37.525.078-38.771-17.818-17.938-17.861" transform="translate(6.306 45.202)" fill="none" stroke="#c8dbfb" stroke-linecap="round" stroke-linejoin="round" stroke-miterlimit="10" stroke-width="1" stroke-dasharray="4"/>
    <circle id="Elipse_18" data-name="Elipse 18" cx="4.789" cy="4.789" r="4.789" transform="translate(42.466 320.436)" fill="#5193f4"/>
    <circle id="Elipse_19" data-name="Elipse 19" cx="4.789" cy="4.789" r="4.789" transform="translate(395.548 307.862)" fill="#0b43a4"/>
    <path id="Caminho_271" data-name="Caminho 271" d="M97.9,347.027l45.269-.094-.412-199.077-53.18.109.395,191.175A7.907,7.907,0,0,0,97.9,347.027Z" transform="translate(6.306 45.202)" fill="#c8dbfb"/>
    <path id="Caminho_275" data-name="Caminho 275" d="M258.493,285.723l-103.478.215a3.638,3.638,0,0,1-3.647-3.633v-.451A3.641,3.641,0,0,1,155,278.206l103.477-.213a3.637,3.637,0,0,1,3.647,3.633v.451A3.638,3.638,0,0,1,258.493,285.723Z" transform="translate(6.306 45.202)" fill="#c8dbfb"/>
    <path id="Caminho_276" data-name="Caminho 276" d="M252.513,167.825l-81.773.168a3.638,3.638,0,0,1-3.646-3.633l0-.45a3.638,3.638,0,0,1,3.633-3.647L252.5,160.1a3.637,3.637,0,0,1,3.646,3.632l0,.451A3.644,3.644,0,0,1,252.513,167.825Z" transform="translate(6.306 45.202)" fill="#c8dbfb"/>
    <path id="Caminho_277" data-name="Caminho 277" d="M381.781,250.525l-109.029.225a3.639,3.639,0,0,1-3.647-3.633v-.451a3.638,3.638,0,0,1,3.634-3.646l109.026-.226a3.636,3.636,0,0,1,3.647,3.634v.45A3.638,3.638,0,0,1,381.781,250.525Z" transform="translate(6.306 45.202)" fill="#c8dbfb"/>
    <path id="Caminho_278" data-name="Caminho 278" d="M258.525,301.707l-103.477.213a3.639,3.639,0,0,1-3.647-3.633v-.451a3.636,3.636,0,0,1,3.632-3.646l103.479-.215a3.638,3.638,0,0,1,3.646,3.633v.451A3.641,3.641,0,0,1,258.525,301.707Z" transform="translate(6.306 45.202)" fill="#c8dbfb"/>
    <path id="Caminho_279" data-name="Caminho 279" d="M258.558,317.689,155.08,317.9a3.636,3.636,0,0,1-3.646-3.631l0-.451a3.638,3.638,0,0,1,3.633-3.647l103.478-.213a3.634,3.634,0,0,1,3.646,3.634v.45A3.635,3.635,0,0,1,258.558,317.689Z" transform="translate(6.306 45.202)" fill="#c8dbfb"/>
    <path id="Caminho_280" data-name="Caminho 280" d="M379.569,328.113l-104.285.215a6.007,6.007,0,0,1-6.023-6l-.093-44.79a6.011,6.011,0,0,1,6-6.023l104.285-.215a6.01,6.01,0,0,1,6.023,6l.093,44.789A6.009,6.009,0,0,1,379.569,328.113Z" transform="translate(6.306 45.202)" fill="#e5e5e5"/>
    <circle id="Elipse_23" data-name="Elipse 23" cx="7.371" cy="7.371" r="7.371" transform="translate(154.692 201.99)" fill="#c8dbfb"/>
    <path id="Caminho_283" data-name="Caminho 283" d="M170.808,222.4l-9.232.094.068,38.678-7.967.018a5.091,5.091,0,0,1-5.1-5.078l-.146-71.526a5.142,5.142,0,0,1,5.133-5.154l17.146-.044Z" transform="translate(6.306 45.202)" fill="#c8dbfb"/>
    <path id="Caminho_284" data-name="Caminho 284" d="M230.7,179.266v1a5.019,5.019,0,0,1,5.01,5L235.854,255a5.013,5.013,0,0,1-5,5.021l-76.27.156a5.018,5.018,0,0,1-5.009-5l-.144-69.737a5.009,5.009,0,0,1,5-5.022l76.258-.157.011-1m0,0h-.015l-76.256.157a6.01,6.01,0,0,0-6,6.024l.144,69.736a6.011,6.011,0,0,0,6.009,6h.016l76.256-.156a6.011,6.011,0,0,0,6-6.023l-.144-69.736a6.011,6.011,0,0,0-6.01-6Z" transform="translate(6.306 45.202)" fill="#c8dbfb"/>
    <path id="Caminho_285" data-name="Caminho 285" d="M358.039,236.664l-101.721-22.99a6.01,6.01,0,0,1-4.538-7.188l11.441-50.628a6.011,6.011,0,0,1,7.188-4.539L372.13,174.308a6.011,6.011,0,0,1,4.538,7.189l-11.44,50.628A6.013,6.013,0,0,1,358.039,236.664Z" transform="translate(6.306 45.202)" fill="#ebf3ff"/>
    <path id="Caminho_286" data-name="Caminho 286" d="M161.175,374.364l-14.234.03-3.483-18.133,21.125-.043Z" transform="translate(6.306 45.202)" fill="#3a5796"/>
    <path id="Caminho_287" data-name="Caminho 287" d="M147.4,356.253c0,1.479-.278,3.963.707,4s.578-2.357,1.7-2.293c.717.041-.334,7.879,2.377,8.064,1.862.129,1.521-3.844,1.713-6.33a1.163,1.163,0,0,1,2.3-.238c.021,1.244-.06,2.078,0,3.494.1,2.367,3.739,1.738,3.608-1.424s-.008-5.3-.008-5.3Z" transform="translate(6.306 45.202)" fill="#c8dbfb"/>
    <path id="Caminho_288" data-name="Caminho 288" d="M143.992,367.2a3.592,3.592,0,0,1-.842-.086,2.975,2.975,0,0,1-2.188-1.639c-1.451-3.076,2.37-8.842,2.52-9.1l.2,1.037c-.035.061-3.356,5.016-2.052,7.777a2.256,2.256,0,0,0,1.687,1.248,3.285,3.285,0,0,0,.715.074c5.126-.01,13.889-9.563,13.984-9.674.358-.434,1.028-.025.791.338C158.406,357.644,149.5,367.192,143.992,367.2Z" transform="translate(6.306 45.202)" fill="#0c2340"/>
    <path id="Caminho_294" data-name="Caminho 294" d="M324.759,161.374c-.9,3.086-1.8,3.393-.717,3.884s1.967-1.238,1.967-1.238l5.02,1s-1.133-3.259-1.924-3.652S324.759,161.374,324.759,161.374Z" transform="translate(6.306 45.202)" fill="#ffb9a3"/>
    <path id="Caminho_295" data-name="Caminho 295" d="M259.2,165.037c.654,1.628.836,1.639,1.749,3.6,1.746,3.74-2.343,9.655-4.882,3.2a18.088,18.088,0,0,1-.708-5.023Z" transform="translate(6.306 45.202)" fill="#ffb9a3"/>
    <path id="Caminho_300" data-name="Caminho 300" d="M200.528,257.52c10.6,3.9,19.815,16.064,17.7,24.908-2.387,9.99-9.278,14.3-9.278,14.3l-2.171-4.012s5.509-8.613,5.031-12.682c-.767-6.516-8.993-10.865-8.993-10.865Z" transform="translate(6.306 45.202)" fill="#0b43a4"/>
    <path id="Caminho_301" data-name="Caminho 301" d="M174.417,370.243s-6.514,2.631-8.142,4.115l12.9-.025-.01-4.1Z" transform="translate(6.306 45.202)" fill="#0c2340"/>
    <path id="Caminho_302" data-name="Caminho 302" d="M202.925,369.993a10.457,10.457,0,0,1,2.189,4.289l-8.8.02a10.294,10.294,0,0,1,1.641-4.3Z" transform="translate(6.306 45.202)" fill="#0c2340"/>
    <path id="Caminho_303" data-name="Caminho 303" d="M203.461,370.185l-6.01.01c.12-7.08-1.34-31.212-2.75-49.251-.83-10.58-1.649-19.08-2.13-20.8l3.22-.709,12.149-2.7C210.021,306.232,205.222,349.854,203.461,370.185Z" transform="translate(6.306 45.202)" fill="#047f76"/>
    <path id="Caminho_304" data-name="Caminho 304" d="M181.373,299.762c-4.688,7.385-5.9,60.745-7.861,70.634l5.7.324A517.421,517.421,0,0,1,199.7,299.258Z" transform="translate(6.306 45.202)" fill="#009790"/>
    <path id="Caminho_305" data-name="Caminho 305" d="M202.1,299.254c-2.75,7.469-5.219,14.778-7.4,21.688-.83-10.579-1.649-19.079-2.13-20.8l3.22-.709Z" transform="translate(6.306 45.202)" fill="#5275a0" opacity="0.2"/>
    <path id="Caminho_307" data-name="Caminho 307" d="M184.955,240.193s-3.648,13.906,5.466,13.889l-.541,3.555,6.923.756-1.5-4.951s1.369-8.74,1.459-10.318C196.939,240.17,188.677,234.975,184.955,240.193Z" transform="translate(6.306 45.202)" fill="#ffb9a3"/>
    <rect id="Retângulo_115" data-name="Retângulo 115" width="2.687" height="11.35" transform="translate(166.037 269.811) rotate(-0.126)" fill="#0c2340"/>
    <path id="Caminho_308" data-name="Caminho 308" d="M168.781,224.594l-15.422.029a1.951,1.951,0,0,1-1.958-1.949v-.4a1.954,1.954,0,0,1,1.949-1.957l15.422-.031a1.954,1.954,0,0,1,1.957,1.951l0,.4A1.954,1.954,0,0,1,168.781,224.594Z" transform="translate(6.306 45.202)" fill="#3a5796"/>
    <path id="Caminho_309" data-name="Caminho 309" d="M159,238.92c-.073-2.574-2.2-1.9-1.026-6.1.725-2.6,6.086.416,5.418,2.221s-1.437,4.646-1.437,4.646Z" transform="translate(6.306 45.202)" fill="#ffb9a3"/>
    <path id="Caminho_310" data-name="Caminho 310" d="M190.487,256.816c-13.63.9-14.527,5.5-20.627,4.777-9.028-1.064-7.448-17.83-6.333-23.842l-5.393.01s-9.72,38.193,20.98,31.131c-1.18,6.691,6.455,17.615-.947,30.877,11.654,3.164,22.528,3.941,31.839-.064-1.63-2.193,3.343-24.387-6.394-40.359C201.712,256.227,191.484,256.75,190.487,256.816Z" transform="translate(6.306 45.202)" fill="#3a5796"/>
    <path id="Caminho_312" data-name="Caminho 312" d="M188.609,242.859c.889.227,1.923.4,2.4,1.152a2.82,2.82,0,0,1,.256,1.67,1.393,1.393,0,0,1,1.463-.955,1.361,1.361,0,0,1,1.188,1.262,2.239,2.239,0,0,1-.2.844,10.178,10.178,0,0,1-1.014,1.932c1.115.406,2.046,3.666,2.6,4.678,1.873-.469,6.039-2.078,6.4-8.709.169-3.09-.772-6.787-4.123-8.846-2.366-1.451-6.294-1.475-9-.779-2.2.563-5.7,2.754-4.067,5.32A6.969,6.969,0,0,0,188.609,242.859Z" transform="translate(6.306 45.202)" fill="#9e4d0c"/>
    <path id="Caminho_313" data-name="Caminho 313" d="M200.284,238.637a3.282,3.282,0,0,1,3.64.861,7.022,7.022,0,0,1,.733,2.9,2.237,2.237,0,0,0,.631,1.291,2.721,2.721,0,0,0,1.683.52,38.333,38.333,0,0,1,4.4.139,4.045,4.045,0,0,1,3.338,2.414c.228.748.1,1.57.376,2.3.41,1.1,1.583,1.727,2.6,2.367a16.951,16.951,0,0,1,5.354,5.328,9.673,9.673,0,0,1,1.6,4.42c.1,1.57,1.234,3.646.934,5.193-.326,1.67-1.967,3.926-5.209,4.971-5.6,1.8-7.378,2.584-12.747-.607-.647-.385-1.912-1.693-2.5-2.162a2.843,2.843,0,0,1-.911-1.451,6.061,6.061,0,0,1,.874-4.6c.806-1.4,1.89-2.641,2.708-4.035a5.041,5.041,0,0,0,.848-2.729,1.46,1.46,0,0,0-.369-.992,1.662,1.662,0,0,0-.868-.393c-1.179-.23-2.476.014-3.544-.518A2.5,2.5,0,0,1,202.569,251c.21-.721.757-1.326.912-2.063a2.814,2.814,0,0,0-1.356-2.76,7.9,7.9,0,0,0-3.16-1.039,3.651,3.651,0,0,1-1.56-.5,2.084,2.084,0,0,1-.791-1.734C196.634,240.838,198.323,239.289,200.284,238.637Z" transform="translate(6.306 45.202)" fill="#9e4d0c"/>
    <path id="Caminho_314" data-name="Caminho 314" d="M199.279,244.226c4.785,1.033,1.646,5.37.926,7.979a2.976,2.976,0,0,0,.87,2.928c.8.841,2.345.787,3.394.762q2.175-.283,2.914,2.619a18.282,18.282,0,0,1-.765,1.91,5.051,5.051,0,0,0-.388,1.648c-.047.368.563.44.646.086.435-1.884,1.66-3.459,1.175-5.442-.373-1.521-2.393-1.554-3.582-1.532a7.413,7.413,0,0,1-1.88-.1c-3.37-.547-1.208-4.217-.6-5.438a4.963,4.963,0,0,0,.549-2.994c-.191-1.583-1.76-2.537-3.167-2.771-.226-.037-.326.3-.1.347Z" transform="translate(6.306 45.202)" fill="#9e4d0c"/>
    <path id="Caminho_315" data-name="Caminho 315" d="M185.382,235.971c5.2-2.639,10.383-2.111,14.774,1.761a.309.309,0,0,0,.437-.437,11.511,11.511,0,0,0-15.352-1.566.14.14,0,0,0,.141.242Z" transform="translate(6.306 45.202)" fill="#9e4d0c"/>
    <path id="Caminho_316" data-name="Caminho 316" d="M360.045,252.283l-2.254,4.531,5.509,2.252.588-5.216Z" transform="translate(6.306 45.202)" fill="#ffb9a3"/>
    <path id="Caminho_317" data-name="Caminho 317" d="M363.37,237.533c-12.492,5.438-7.374,18.615.23,17.068,3.7-.754,5.572-12.67,5.572-12.67Z" transform="translate(6.306 45.202)" fill="#ffb9a3"/>
    <path id="Caminho_318" data-name="Caminho 318" d="M367.519,235.658a6.5,6.5,0,0,0-1.478-2.123,1.889,1.889,0,0,0-2.385-.125c-.841.781-.349,2.244.5,3.016-.732.088-1.6-.418-2.143.086-.41.381-.269,1.057-.033,1.563a6.981,6.981,0,0,0,2.561,2.938c-.634.357-1.367,1.055-.988,1.678.105.172.282.291.387.463.242.4.009.918-.234,1.32q-.592.972-1.271,1.893a1.113,1.113,0,0,1,1.789.311,1.909,1.909,0,0,1-.444,2.012,2,2,0,0,1-1.009.645c-.344.08-1.855,4.762-.676,5.678,1.459,1.133,6.424.148,7.143-1.133a3.174,3.174,0,0,0,2.811,1.162,1.727,1.727,0,0,0,1.271-2.387,2.921,2.921,0,0,0,3.525-4.23c.612-.184.735-1.012.58-1.633a3.772,3.772,0,0,0-2.586-2.655,1.275,1.275,0,0,0,1.165-1.259,2.643,2.643,0,0,0-.7-1.719,5.859,5.859,0,0,0-4.3-2.051C369.259,238.881,368.294,237.1,367.519,235.658Z" transform="translate(6.306 45.202)" fill="#0c2340"/>
    <path id="Caminho_319" data-name="Caminho 319" d="M355.813,369.376s-7.311,3.51-8.291,4.6c0,0,14.382.648,15.508-.031s-2.3-4.582-2.3-4.582Z" transform="translate(6.306 45.202)" fill="#0c2340"/>
    <path id="Caminho_320" data-name="Caminho 320" d="M383,365.409s-6.425,4.945-7.157,6.219c0,0,15.164-2.25,15.164-3.238s-3.2-4.008-3.2-4.008Z" transform="translate(6.306 45.202)" fill="#0c2340"/>
    <path id="Caminho_323" data-name="Caminho 323" d="M343.211,234.242c-2.253,7.945-2.993,22.621,8.292,28.533l7.555-1.84s-13.617-7.141-10.7-25.186Z" transform="translate(6.306 45.202)" fill="#0b43a4"/>
    <path id="Caminho_325" data-name="Caminho 325" d="M315.231,225.707c-.992,1.148,3.15,2.607,7.17,4.469l5.146-.635a19.5,19.5,0,0,0-.005-2.1c-.063-1.068-.6-1.682-1.212-.762s-3.212,1.229-4.438.391S316.224,224.557,315.231,225.707Z" transform="translate(6.306 45.202)" fill="#ffb9a3"/>
    <path id="Caminho_326" data-name="Caminho 326" d="M343.211,234.242c-1.885-1.854-1.385-1.74-1.385-1.74l5.751,1.3s1.266-2.809,2.336-2.887-.809,1.936-.377,2.682-1.18,2.152-1.18,2.152Z" transform="translate(6.306 45.202)" fill="#ffb9a3"/>
    <path id="Caminho_327" data-name="Caminho 327" d="M370.748,238.369a10,10,0,0,1,3.165,1.064,2.569,2.569,0,0,1,.9,3.443c-.327.521.451.932.8.469a3.132,3.132,0,0,0-.247-3.876,5.368,5.368,0,0,0-4.551-1.63c-.286.032-.386.45-.071.53Z" transform="translate(6.306 45.202)" fill="#0c2340"/>
    <path id="Caminho_328" data-name="Caminho 328" d="M375.948,249.037a1.869,1.869,0,0,1,1.1,2.168c-.238.886-1.246,1.445-1.941,1.937a.336.336,0,0,0,.34.58c1.042-.554,2.275-1.384,2.393-2.688a2.6,2.6,0,0,0-1.574-2.535.314.314,0,0,0-.322.538Z" transform="translate(6.306 45.202)" fill="#0c2340"/>
    <path id="Caminho_329" data-name="Caminho 329" d="M362.815,255a6.981,6.981,0,0,0,8.588-.938c.271-.288-.1-.825-.44-.569a7.681,7.681,0,0,1-7.931,1.137.215.215,0,0,0-.217.37Z" transform="translate(6.306 45.202)" fill="#0c2340"/>
    <path id="Caminho_330" data-name="Caminho 330" d="M376.3,240.109c1.521,1.445,0,3.424-.979,4.67-.215.274.125.643.394.393a4.9,4.9,0,0,0,1.841-2.82,2.321,2.321,0,0,0-1.115-2.418c-.115-.063-.237.085-.141.175Z" transform="translate(6.306 45.202)" fill="#0c2340"/>
    <g id="Grupo_158" data-name="Grupo 158" transform="translate(6.306 45.202)">
      <path id="Caminho_707" data-name="Caminho 707" d="M323.335,184.086l1.752-7.9,13.071,2.9h0a8.092,8.092,0,0,1,6.151,9.651Z" fill="#92b1e0"/>
      <path id="Caminho_708" data-name="Caminho 708" d="M338.144,179.146l.015-.067L313.436,173.6a8.88,8.88,0,0,0-10.591,6.75l-7.757,35.025,25.783,5.711,7.757-35.026A8.879,8.879,0,0,1,338.144,179.146Z" fill="#a0c0ef"/>
      <path id="Caminho_709" data-name="Caminho 709" d="M338.144,179.146l.015-.067-18.249-4.042a8.88,8.88,0,0,0-10.59,6.75l-7.757,35.025,19.309,4.277,7.757-35.026A8.877,8.877,0,0,1,338.144,179.146Z" fill="#b1cffe"/>
      <rect id="Retângulo_118" data-name="Retângulo 118" width="19.046" height="1.782" transform="translate(306.398 181.041) rotate(12.487)" fill="#fff"/>
      <rect id="Retângulo_119" data-name="Retângulo 119" width="19.047" height="1.783" transform="translate(305.386 185.578) rotate(12.487)" fill="#fff"/>
      <rect id="Retângulo_120" data-name="Retângulo 120" width="19.047" height="1.782" transform="translate(304.391 190.097) rotate(12.487)" fill="#fff"/>
      <rect id="Retângulo_121" data-name="Retângulo 121" width="19.046" height="1.782" transform="translate(303.391 194.621) rotate(12.487)" fill="#fff"/>
    </g>
    <g id="Grupo_165" data-name="Grupo 165" transform="translate(6.306 45.202)">
      <path id="Caminho_729" data-name="Caminho 729" d="M340.079,183.343a1.444,1.444,0,0,0-2.863.025Z" fill="#d4e3f9"/>
      <path id="Caminho_730" data-name="Caminho 730" d="M337.233,183.836a1.446,1.446,0,0,0,2.838-.025Z" fill="#d4e3f9"/>
    </g>
    <path id="Caminho_738" data-name="Caminho 738" d="M312.933,206.045a4.546,4.546,0,0,0-4.606,4.488c-.034,2.511,4.432,8.75,4.432,8.75s4.628-6.119,4.661-8.63A4.551,4.551,0,0,0,312.933,206.045Zm-.087,6.486c-.066,0-.132-.006-.2-.012a1.944,1.944,0,0,1-1.68-1.561,2.085,2.085,0,0,1-.034-.391,1.854,1.854,0,0,1,.1-.575,1.9,1.9,0,0,1,.361-.651,1.946,1.946,0,0,1,.928-.606,1.979,1.979,0,0,1,.38-.073,1.838,1.838,0,0,1,.2-.006,1.938,1.938,0,1,1-.052,3.875Z" transform="translate(6.306 45.202)" fill="#d4e3f9"/>
    <g id="Grupo_168" data-name="Grupo 168" transform="translate(6.306 45.202)">
      <path id="Caminho_739" data-name="Caminho 739" d="M315.938,205.237a4.949,4.949,0,0,0-5.9,3.762c-.592,2.669,2.786,10.306,2.786,10.306s6.287-5.5,6.879-8.166A4.951,4.951,0,0,0,315.938,205.237Zm-1.526,6.892a2.109,2.109,0,1,1,2.516-1.605A2.11,2.11,0,0,1,314.412,212.129Z" fill="#5e9fff"/>
      <path id="Caminho_740" data-name="Caminho 740" d="M312.81,209.613a2.109,2.109,0,0,1,2.515-1.6l.614-2.773a4.949,4.949,0,0,0-5.9,3.762c-.592,2.669,2.786,10.306,2.786,10.306l1.59-7.176A2.109,2.109,0,0,1,312.81,209.613Z" fill="#d4e3f9"/>
    </g>
    <circle id="Elipse_33" data-name="Elipse 33" cx="9.97" cy="9.97" r="9.97" transform="translate(184 229.736)" fill="#a7e0d7"/>
    <path id="Caminho_204" data-name="Caminho 204" d="M42.965,195.17a11.676,11.676,0,0,0,2,.164" transform="translate(6.306 45.202)" fill="none" stroke="#c8dbfb" stroke-linecap="round" stroke-linejoin="round" stroke-width="1"/>
    <path id="Caminho_929" data-name="Caminho 929" d="M187.276,239.653l4.611,4.485,7.625-8.746" transform="translate(0.5)" fill="none" stroke="#fff" stroke-width="1"/>
    <circle id="Elipse_35" data-name="Elipse 35" cx="9.97" cy="9.97" r="9.97" transform="translate(213.666 229.625)" fill="#a7e0d7"/>
    <path id="Caminho_930" data-name="Caminho 930" d="M187.276,239.653l4.611,4.485,7.625-8.746" transform="translate(30.166 -0.111)" fill="none" stroke="#fff" stroke-width="1"/>
    <circle id="Elipse_36" data-name="Elipse 36" cx="9.97" cy="9.97" r="9.97" transform="translate(213.666 256.309)" fill="#a7e0d7"/>
    <path id="Caminho_931" data-name="Caminho 931" d="M187.276,239.653l4.611,4.485,7.625-8.746" transform="translate(30.166 26.573)" fill="none" stroke="#fff" stroke-width="1"/>
    <circle id="Elipse_37" data-name="Elipse 37" cx="9.97" cy="9.97" r="9.97" transform="translate(184 256.068)" fill="#a7e0d7"/>
    <path id="Caminho_932" data-name="Caminho 932" d="M187.276,239.653l4.611,4.485,7.625-8.746" transform="translate(0.5 26.332)" fill="none" stroke="#fff" stroke-width="1"/>
    <path id="Caminho_933" data-name="Caminho 933" d="M350.141,233.828v-.078l-.127.721-6.9,34.864-15.28-3.389-.6-.149" fill="none" stroke="#92b1e0" stroke-width="1"/>
    <line id="Linha_1" data-name="Linha 1" y1="1" x2="101" transform="translate(283.5 321.5)" fill="none" stroke="#707070" stroke-width="1"/>
    <line id="Linha_1-2" data-name="Linha 1" y1="1" x2="101" transform="translate(283.5 330.5)" fill="none" stroke="#707070" stroke-width="1"/>
    <line id="Linha_1-3" data-name="Linha 1" y1="1" x2="101" transform="translate(283.5 339.5)" fill="none" stroke="#707070" stroke-width="1"/>
    <line id="Linha_1-4" data-name="Linha 1" y1="1" x2="101" transform="translate(283.5 348.5)" fill="none" stroke="#707070" stroke-width="1"/>
    <line id="Linha_1-5" data-name="Linha 1" y1="1" x2="101" transform="translate(283.5 357.5)" fill="none" stroke="#707070" stroke-width="1"/>
    <line id="Linha_1-6" data-name="Linha 1" y1="1" x2="101" transform="translate(283.5 366.5)" fill="none" stroke="#707070" stroke-width="1"/>
    <path id="Caminho_936" data-name="Caminho 936" d="M362.882,301.613c-.271,1.486-10.277,40.992,18.354,64.677l8.294-1.9s-9.652-9.055-14.2-25.348c-4.3-15.4-.886-16.918,1.694-25.4,2.854-9.395.729-16.211.729-16.211Z" transform="translate(6.306 45.202)" fill="#d8742a"/>
    <path id="Caminho_937" data-name="Caminho 937" d="M349.2,301.492c-4.539,10.85-12.332,47.816,4.652,68.634l8.479-.018s-6.681-7.322-7.428-24.312,3.571-24.445,6.618-30.052,5.865-15.132,5.865-15.132Z" transform="translate(6.306 45.202)" fill="#ef832b"/>
    <path id="Caminho_938" data-name="Caminho 938" d="M322.4,230.176l5.861-.723s-.7,24.623,27.731,26.693c21.707,1.584,23.413,42.318,23.413,42.318-7,4.713-18.745,6.139-33.8,5.061,0,0,.963-29.063-1.428-37.018C344.187,266.51,320.56,259.076,322.4,230.176Z" transform="translate(6.306 45.202)" fill="#3a5796"/>
    <g id="Repetição_de_grade_1" data-name="Repetição de grade 1" transform="translate(99 199)" clip-path="url(#clip-path)">
      <g transform="translate(-99 -199)">
        <rect id="Retângulo_122" data-name="Retângulo 122" width="46" height="7" transform="translate(99 199)" fill="#fff"/>
      </g>
      <g transform="translate(-99 -188)">
        <rect id="Retângulo_122-2" data-name="Retângulo 122" width="46" height="7" transform="translate(99 199)" fill="#fff"/>
      </g>
      <g transform="translate(-99 -177)">
        <rect id="Retângulo_122-3" data-name="Retângulo 122" width="46" height="7" transform="translate(99 199)" fill="#fff"/>
      </g>
      <g transform="translate(-99 -166)">
        <rect id="Retângulo_122-4" data-name="Retângulo 122" width="46" height="7" transform="translate(99 199)" fill="#fff"/>
      </g>
      <g transform="translate(-99 -155)">
        <rect id="Retângulo_122-5" data-name="Retângulo 122" width="46" height="7" transform="translate(99 199)" fill="#fff"/>
      </g>
      <g transform="translate(-99 -144)">
        <rect id="Retângulo_122-6" data-name="Retângulo 122" width="46" height="7" transform="translate(99 199)" fill="#fff"/>
      </g>
      <g transform="translate(-99 -133)">
        <rect id="Retângulo_122-7" data-name="Retângulo 122" width="46" height="7" transform="translate(99 199)" fill="#fff"/>
      </g>
    </g>
    <text id="Test_Manager" data-name="Test Manager" transform="translate(268 87)" fill="#3a5796" font-size="40" font-family="SegoeUI, Segoe UI"><tspan x="0" y="0">Test Manager</tspan></text>
  </g>
</svg>
